<?xml version="1.0" encoding="UTF-8" standalone="no"?>
<!-- Generator: Adobe Illustrator 16.0.0, SVG Export Plug-In . SVG Version: 6.00 Build 0)  -->

<svg
   xmlns:dc="http://purl.org/dc/elements/1.1/"
   xmlns:cc="http://creativecommons.org/ns#"
   xmlns:rdf="http://www.w3.org/1999/02/22-rdf-syntax-ns#"
   xmlns:svg="http://www.w3.org/2000/svg"
   xmlns="http://www.w3.org/2000/svg"
   xmlns:xlink="http://www.w3.org/1999/xlink"
   xmlns:sodipodi="http://sodipodi.sourceforge.net/DTD/sodipodi-0.dtd"
   xmlns:inkscape="http://www.inkscape.org/namespaces/inkscape"
   version="1.1"
   id="Layer_1"
   x="0px"
   y="0px"
   width="235.5px"
   height="282.377px"
   viewBox="9 12.434 235.5 282.377"
   enable-background="new 9 12.434 235.5 282.377"
   xml:space="preserve"
   inkscape:version="0.91 r13725"
   sodipodi:docname="ups_skel.svg"><metadata
     id="metadata5608"><rdf:RDF><cc:Work
         rdf:about=""><dc:format>image/svg+xml</dc:format><dc:type
           rdf:resource="http://purl.org/dc/dcmitype/StillImage" /><dc:title></dc:title></cc:Work></rdf:RDF></metadata><defs
     id="defs5606" /><sodipodi:namedview
     pagecolor="#ffffff"
     bordercolor="#666666"
     borderopacity="1"
     objecttolerance="10"
     gridtolerance="10"
     guidetolerance="10"
     inkscape:pageopacity="0"
     inkscape:pageshadow="2"
     inkscape:window-width="1280"
     inkscape:window-height="995"
     id="namedview5604"
     showgrid="false"
     inkscape:zoom="2.8614227"
     inkscape:cx="118.09948"
     inkscape:cy="134.75792"
     inkscape:window-x="0"
     inkscape:window-y="29"
     inkscape:window-maximized="1"
     inkscape:current-layer="Layer_1" /><g
     id="g4137"
     transform="translate(-1.0484295,0.69895301)"><g
       id="g4141"><g
         id="g4143"><defs
           id="defs4145"><path
             inkscape:connector-curvature="0"
             d="m 239.938,40.271 c -23.854,-13.176 -50.916,-19.393 -72.65,-22.319 -23.732,-3.188 -41.1,-2.46 -41.014,-2.584 0.051,0.066 -4.582,-0.098 -12.35,0.167 C 106,15.811 94.81,16.531 81.986,18.411 71.873,19.897 60.75,22.1 49.41,25.362 37.058,28.921 24.458,33.743 12.635,40.271 c 0,9.165 0,18.331 0,27.496 0,2.659 0,7.823 0,10.478 0,7.525 0,12.553 0,20.082 0,25.544 0,51.092 0,76.636 0.007,27.27 9.397,51.235 29.949,68.317 4.658,3.939 11.807,8.437 20.016,13.004 6.962,3.866 14.69,7.783 22.284,11.466 8.957,4.333 17.735,8.316 24.884,11.476 9.811,4.333 16.56,7.106 16.505,7.053 -0.082,0.072 14.932,-6.104 32.683,-14.39 18.897,-8.828 40.882,-20.027 51.021,-28.607 20.562,-17.081 29.963,-41.049 29.963,-68.326 0,-25.535 0,-51.083 0,-76.627 0,-7.529 0,-13.387 0,-20.915 0,-2.659 0,-6.985 0,-9.645 -0.002,-9.167 -0.002,-18.334 -0.002,-27.498"
             id="SVGID_1_" /></defs><clipPath
           id="SVGID_2_"><use
             height="100%"
             width="100%"
             y="0"
             x="0"
             style="overflow:visible"
             id="use4149"
             overflow="visible"
             xlink:href="#SVGID_1_" /></clipPath><linearGradient
           gradientTransform="matrix(1,0,0,-1,-56.7402,259.4458)"
           y2="109.9456"
           x2="301.2402"
           y1="109.9456"
           x1="65.740196"
           gradientUnits="userSpaceOnUse"
           id="SVGID_3_"><stop
             id="stop4152"
             style="stop-color:#FFD66B"
             offset="0" /><stop
             id="stop4154"
             style="stop-color:#FDE2D2"
             offset="0.2821" /><stop
             id="stop4156"
             style="stop-color:#E9AA70"
             offset="0.4908" /><stop
             id="stop4158"
             style="stop-color:#DC931D"
             offset="1" /></linearGradient></g></g><g
       id="g4162"><g
         id="g4164"><defs
           id="defs4166"><path
             inkscape:connector-curvature="0"
             d="m 231.023,42.028 c -33.25,-3.497 -69.891,-4.414 -106.362,2.855 -10.585,2.128 -21.157,4.938 -31.589,8.591 -11.147,3.908 -22.126,8.768 -32.784,14.768 -13.627,7.675 -26.713,17.214 -38.925,28.978 -0.002,2.517 -0.009,5.033 -0.016,7.547 -0.018,12.074 -0.029,24.159 -0.034,36.245 -0.009,11.342 0,22.69 0.009,34.039 0.018,25.301 9.11,46.589 26.897,61.366 10.938,5.661 21.878,11.326 32.822,16.991 8.355,4.333 16.716,8.655 25.074,12.988 6.721,3.476 13.441,6.953 20.162,10.44 13.396,-5.584 62.211,-27.025 78.068,-40.421 17.791,-14.777 26.872,-36.065 26.891,-61.366 0.027,-24.387 0.015,-48.788 -0.026,-73.15 -0.036,-16.551 -0.081,-33.086 -0.146,-49.569 -0.017,-3.433 -0.026,-6.869 -0.041,-10.302"
             id="SVGID_4_" /></defs><clipPath
           id="SVGID_5_"><use
             height="100%"
             width="100%"
             y="0"
             x="0"
             style="overflow:visible"
             id="use4170"
             overflow="visible"
             xlink:href="#SVGID_4_" /></clipPath><linearGradient
           gradientTransform="matrix(1,0,0,-1,-56.7402,259.4458)"
           y2="104.0876"
           x2="173.7326"
           y1="127.0876"
           x1="72.732399"
           gradientUnits="userSpaceOnUse"
           id="SVGID_6_"><stop
             id="stop4173"
             style="stop-color:#DBC9B8"
             offset="0" /><stop
             id="stop4175"
             style="stop-color:#775024"
             offset="0.3114" /><stop
             id="stop4177"
             style="stop-color:#4E2700"
             offset="1" /></linearGradient></g></g><path
       style="fill:#3f1800"
       inkscape:connector-curvature="0"
       id="path4183"
       d="m 241.396,174.952 c 0,14.096 -2.492,27.069 -7.381,38.572 -5.138,12.009 -12.898,22.403 -23.104,30.87 -10.269,8.697 -32.569,19.996 -49.466,27.938 -9.668,4.55 -18.491,8.447 -24.207,10.915 -3.415,1.48 -9.393,3.971 -10.965,4.616 l 0,0.806 c 1.576,-0.66 7.83,-3.276 11.264,-4.758 5.711,-2.468 14.552,-6.37 24.216,-10.915 24.64,-11.594 41.347,-21.018 49.642,-28.038 10.271,-8.543 18.117,-19.038 23.276,-31.154 4.946,-11.593 7.459,-24.649 7.459,-38.854 l 0,-135.974 -0.731,0.425 0,135.552" /><path
       style="fill:#3f1800"
       inkscape:connector-curvature="0"
       id="path4185"
       d="M 11.925,38.99 C 53.485,16.014 104.884,13.795 125.036,13.905 l 1.237,0 1.261,0 c 20.149,-0.109 71.545,2.11 113.104,25.085 l 0.758,0.411 0.732,-0.425 -1.145,-0.624 C 199.274,15.291 147.745,13.068 127.518,13.177 l -1.246,0 -1.238,0 C 104.821,13.069 53.277,15.291 11.571,38.345 l -1.141,0.624 0.736,0.432 0.759,-0.411" /><path
       style="fill:#3f1800"
       inkscape:connector-curvature="0"
       id="path4187"
       d="m 17.894,213.806 c 5.175,12.116 13.011,22.611 23.296,31.164 8.281,7.012 24.973,16.436 49.62,28.028 9.661,4.545 18.51,8.447 24.22,10.915 3.42,1.48 9.69,4.098 11.246,4.758 l 0,-0.805 c -1.555,-0.646 -7.534,-3.137 -10.957,-4.617 -5.71,-2.468 -14.547,-6.365 -24.209,-10.915 -16.895,-7.942 -39.183,-19.241 -49.445,-27.925 -10.206,-8.48 -17.972,-18.876 -23.098,-30.885 -4.895,-11.503 -7.38,-24.478 -7.38,-38.572 L 11.168,39.401 10.432,38.969 10.453,174.952 c 0.006,14.204 2.509,27.261 7.441,38.854" /><path
       style="fill:#3f1800"
       inkscape:connector-curvature="0"
       id="path4261"
       d="M 124.955,46.324 C 84.414,54.447 50.056,71.784 22.827,97.861 l 0.734,0.321 c 27.093,-25.86 61.242,-43.071 101.534,-51.14 30.297,-6.045 64.252,-7.025 103.734,-3.017 l 0.735,-0.667 c -39.835,-4.093 -74.073,-3.124 -104.609,2.966" /><path
       style="fill:#3f1800"
       inkscape:connector-curvature="0"
       id="path4263"
       d="m 229.051,150.862 c 0,8.088 -0.01,16.156 -0.014,24.188 -0.021,24.876 -9.045,45.504 -26.107,59.677 -14.693,12.41 -59.492,32.533 -76.65,39.727 l 0,0.79 c 16.97,-7.099 62.283,-27.414 77.123,-39.951 17.231,-14.313 26.345,-35.148 26.375,-60.241 0.006,-8.032 0.015,-16.102 0.015,-24.188 0,-35.567 -0.081,-71.62 -0.226,-107.501 l -0.736,0.667 c 0.148,35.654 0.22,71.485 0.22,106.832" /><path
       style="fill:#3f1800"
       inkscape:connector-curvature="0"
       id="path4265"
       d="m 49.625,234.723 c -17.055,-14.168 -26.082,-34.806 -26.1,-59.672 -0.014,-7.915 -0.014,-15.938 -0.014,-24.075 0,-17.215 0.018,-34.887 0.05,-52.793 l -0.734,-0.321 c -0.031,18.018 -0.047,35.796 -0.047,53.114 0,8.137 0.004,16.17 0.011,24.075 0.018,25.093 9.14,45.92 26.359,60.241 14.769,12.465 60.137,32.831 77.127,39.951 l 0,-0.79 c -17.175,-7.22 -62.037,-27.388 -76.652,-39.73" /><path
       style="fill:#3f1800"
       inkscape:connector-curvature="0"
       id="path4267"
       d="m 127.521,12.438 -1.246,0.011 -1.234,-0.011 C 104.768,12.328 53.097,14.563 11.237,37.713 l -1.537,0.825 0.732,0.431 1.141,-0.624 C 53.28,15.291 104.823,13.068 125.036,13.177 l 1.237,0 1.246,0 c 20.228,-0.108 71.758,2.114 113.467,25.175 l 1.144,0.624 0.736,-0.438 -1.527,-0.825 C 199.48,14.564 147.793,12.328 127.521,12.438" /><path
       style="fill:#3f1800"
       inkscape:connector-curvature="0"
       id="path4269"
       d="m 242.13,174.952 c 0,14.203 -2.513,27.261 -7.459,38.854 -5.159,12.116 -13.007,22.611 -23.276,31.154 -8.295,7.021 -25.002,16.444 -49.642,28.038 -9.664,4.545 -18.505,8.447 -24.216,10.915 -3.434,1.48 -9.688,4.098 -11.264,4.758 l 0,0.785 c 1.576,-0.659 8.119,-3.385 11.558,-4.865 5.715,-2.484 14.562,-6.379 24.247,-10.929 24.676,-11.615 41.429,-21.085 49.777,-28.143 10.377,-8.62 18.297,-19.195 23.502,-31.431 4.97,-11.674 7.498,-24.835 7.509,-39.138 l 0,-136.412 -0.736,0.438 0,135.976" /><path
       style="fill:#3f1800"
       inkscape:connector-curvature="0"
       id="path4271"
       d="m 115.029,283.913 c -5.71,-2.468 -14.559,-6.37 -24.22,-10.915 C 66.162,261.404 49.471,251.98 41.189,244.97 30.904,236.417 23.068,225.922 17.893,213.806 12.961,202.213 10.459,189.157 10.452,174.952 L 10.432,38.969 9.7,38.538 9.718,174.952 c 0.011,14.303 2.528,27.464 7.504,39.138 5.209,12.233 13.12,22.811 23.493,31.431 8.349,7.058 25.094,16.526 49.777,28.143 9.668,4.55 18.523,8.443 24.238,10.929 3.424,1.48 9.989,4.206 11.543,4.865 l 0,-0.785 c -1.553,-0.662 -7.824,-3.278 -11.244,-4.76" /><g
       id="g4673"><g
         id="g4675"><defs
           id="defs4677"><path
             inkscape:connector-curvature="0"
             d="m 125.239,47.763 c 30.049,-5.993 63.734,-6.991 102.863,-3.079 l 0.728,-0.657 c -39.481,-4.01 -73.438,-3.028 -103.734,3.017 -40.292,8.068 -74.44,25.278 -101.534,51.14 l 0.741,0.321 C 51.253,72.86 85.202,55.785 125.239,47.763"
             id="SVGID_77_" /></defs><clipPath
           id="SVGID_78_"><use
             height="100%"
             width="100%"
             y="0"
             x="0"
             style="overflow:visible"
             id="use4681"
             overflow="visible"
             xlink:href="#SVGID_77_" /></clipPath><path
           style="fill:#8c6741"
           inkscape:connector-curvature="0"
           id="path4683"
           d="m 125.239,47.763 c 30.049,-5.993 63.734,-6.991 102.863,-3.079 l 0.728,-0.657 c -39.481,-4.01 -73.438,-3.028 -103.734,3.017 -40.292,8.068 -74.44,25.278 -101.534,51.14 l 0.741,0.321 C 51.253,72.86 85.202,55.785 125.239,47.763"
           clip-path="url(#SVGID_78_)" /></g><g
         id="g4685"><defs
           id="defs4687"><path
             inkscape:connector-curvature="0"
             d="m 125.239,47.763 c 30.049,-5.993 63.734,-6.991 102.863,-3.079 l 0.728,-0.657 c -39.481,-4.01 -73.438,-3.028 -103.734,3.017 -40.292,8.068 -74.44,25.278 -101.534,51.14 l 0.741,0.321 C 51.253,72.86 85.202,55.785 125.239,47.763"
             id="SVGID_79_" /></defs><clipPath
           id="SVGID_80_"><use
             height="100%"
             width="100%"
             y="0"
             x="0"
             style="overflow:visible"
             id="use4691"
             overflow="visible"
             xlink:href="#SVGID_79_" /></clipPath><linearGradient
           gradientTransform="matrix(44.3701,0,0,15.4421,33613.707,722.1793)"
           y2="-42.282001"
           x2="-752.41852"
           y1="-42.282001"
           x1="-757.04437"
           gradientUnits="userSpaceOnUse"
           id="SVGID_81_"><stop
             id="stop4694"
             style="stop-color:#8C6741"
             offset="0" /><stop
             id="stop4696"
             style="stop-color:#9C7955"
             offset="1" /></linearGradient><rect
           style="fill:url(#SVGID_81_)"
           id="rect4698"
           height="58.486"
           width="205.26801"
           clip-path="url(#SVGID_80_)"
           y="40.018002"
           x="23.561001" /></g></g><path
       style="fill:#3f1800"
       inkscape:connector-curvature="0"
       id="path4700"
       d="m 228.318,150.862 c 0,8.088 -0.01,16.156 -0.014,24.188 -0.022,24.646 -8.949,45.079 -25.852,59.121 -14.534,12.279 -58.836,32.207 -76.176,39.477 l 0,0.806 c 17.158,-7.192 61.957,-27.315 76.649,-39.727 17.063,-14.173 26.087,-34.801 26.108,-59.677 0.004,-8.032 0.014,-16.103 0.014,-24.188 0,-35.347 -0.072,-71.178 -0.222,-106.835 l -0.728,0.657 c 0.149,35.45 0.221,71.048 0.221,106.178" /><g
       id="g4702"><g
         id="g4704"><defs
           id="defs4706"><path
             inkscape:connector-curvature="0"
             d="m 23.525,175.051 c 0.018,24.866 9.044,45.504 26.1,59.672 14.615,12.343 59.477,32.511 76.654,39.73 l 0,-0.806 C 108.924,266.351 64.566,246.374 50.091,234.152 33.21,220.13 24.274,199.681 24.252,175.049 c 0,-7.915 -0.007,-15.938 -0.007,-24.075 0,-17.111 0.013,-34.677 0.056,-52.472 L 23.56,98.181 c -0.032,17.906 -0.05,35.578 -0.05,52.793 10e-4,8.138 10e-4,16.162 0.015,24.077"
             id="SVGID_82_" /></defs><clipPath
           id="SVGID_83_"><use
             height="100%"
             width="100%"
             y="0"
             x="0"
             style="overflow:visible"
             id="use4710"
             overflow="visible"
             xlink:href="#SVGID_82_" /></clipPath><path
           style="fill:#492300"
           inkscape:connector-curvature="0"
           id="path4712"
           d="m 23.525,175.051 c 0.018,24.866 9.044,45.504 26.1,59.672 14.615,12.343 59.477,32.511 76.654,39.73 l 0,-0.806 C 108.924,266.351 64.566,246.374 50.091,234.152 33.21,220.13 24.274,199.681 24.252,175.049 c 0,-7.915 -0.007,-15.938 -0.007,-24.075 0,-17.111 0.013,-34.677 0.056,-52.472 L 23.56,98.181 c -0.032,17.906 -0.05,35.578 -0.05,52.793 10e-4,8.138 10e-4,16.162 0.015,24.077"
           clip-path="url(#SVGID_83_)" /></g><g
         id="g4714"><defs
           id="defs4716"><path
             inkscape:connector-curvature="0"
             d="m 23.525,175.051 c 0.018,24.866 9.044,45.504 26.1,59.672 14.615,12.343 59.477,32.511 76.654,39.73 l 0,-0.806 C 108.924,266.351 64.566,246.374 50.091,234.152 33.21,220.13 24.274,199.681 24.252,175.049 c 0,-7.915 -0.007,-15.938 -0.007,-24.075 0,-17.111 0.013,-34.677 0.056,-52.472 L 23.56,98.181 c -0.032,17.906 -0.05,35.578 -0.05,52.793 10e-4,8.138 10e-4,16.162 0.015,24.077"
             id="SVGID_84_" /></defs><clipPath
           id="SVGID_85_"><use
             height="100%"
             width="100%"
             y="0"
             x="0"
             style="overflow:visible"
             id="use4720"
             overflow="visible"
             xlink:href="#SVGID_84_" /></clipPath><linearGradient
           gradientTransform="matrix(-22.2141,0,0,-40.9025,-17167.803,-2943.0706)"
           y2="-76.508102"
           x2="-773.89209"
           y1="-76.508102"
           x1="-778.51813"
           gradientUnits="userSpaceOnUse"
           id="SVGID_86_"><stop
             id="stop4723"
             style="stop-color:#492300"
             offset="0" /><stop
             id="stop4725"
             style="stop-color:#70491C"
             offset="1" /></linearGradient><rect
           style="fill:url(#SVGID_86_)"
           id="rect4727"
           height="176.271"
           width="102.766"
           clip-path="url(#SVGID_85_)"
           y="98.182999"
           x="23.511" /></g></g><g
       id="g4731"><g
         id="g4733"><defs
           id="defs4735"><path
             inkscape:connector-curvature="0"
             d="M 42.59,243.279 C 22.045,226.197 12.648,202.225 12.648,174.953 c 0,-44.898 -0.013,-89.774 -0.013,-134.687 l -1.466,-0.865 0.018,135.552 c 0,14.096 2.485,27.069 7.38,38.572 5.125,12.008 12.892,22.403 23.098,30.885 10.262,8.684 32.551,19.981 49.445,27.925 9.662,4.55 18.499,8.447 24.209,10.915 3.422,1.48 9.401,3.971 10.957,4.617 l 0,-1.591 c 0.179,0.159 -64.029,-26.362 -83.686,-42.997"
             id="SVGID_87_" /></defs><clipPath
           id="SVGID_88_"><use
             height="100%"
             width="100%"
             y="0"
             x="0"
             style="overflow:visible"
             id="use4739"
             overflow="visible"
             xlink:href="#SVGID_87_" /></clipPath></g><g
         id="g4743"><defs
           id="defs4745"><path
             inkscape:connector-curvature="0"
             d="M 42.59,243.279 C 22.045,226.197 12.648,202.225 12.648,174.953 c 0,-44.898 -0.013,-89.774 -0.013,-134.687 l -1.466,-0.865 0.018,135.552 c 0,14.096 2.485,27.069 7.38,38.572 5.125,12.008 12.892,22.403 23.098,30.885 10.262,8.684 32.551,19.981 49.445,27.925 9.662,4.55 18.499,8.447 24.209,10.915 3.422,1.48 9.401,3.971 10.957,4.617 l 0,-1.591 c 0.179,0.159 -64.029,-26.362 -83.686,-42.997"
             id="SVGID_89_" /></defs><clipPath
           id="SVGID_90_"><use
             height="100%"
             width="100%"
             y="0"
             x="0"
             style="overflow:visible"
             id="use4749"
             overflow="visible"
             xlink:href="#SVGID_89_" /></clipPath><linearGradient
           gradientTransform="matrix(24.8811,0,0,56.5076,18740.969,3432.4055)"
           y2="-57.847401"
           x2="-748.14728"
           y1="-57.847401"
           x1="-752.77197"
           gradientUnits="userSpaceOnUse"
           id="SVGID_91_"><stop
             id="stop4752"
             style="stop-color:#FFD568"
             offset="0" /><stop
             id="stop4754"
             style="stop-color:#A36D12"
             offset="0.8353" /><stop
             id="stop4756"
             style="stop-color:#905800"
             offset="1" /></linearGradient></g></g><g
       id="g5175"><g
         id="g5177"><defs
           id="defs5179"><path
             inkscape:connector-curvature="0"
             d="m 99.829,240.704 0,1.455 1.461,-1.465 c -0.224,-43.271 -0.278,-88.313 -0.186,-132.517 l -1.455,-0.795 -0.007,0.795 c -0.098,44.606 -0.037,89.206 0.187,132.527"
             id="SVGID_167_" /></defs><clipPath
           id="SVGID_168_"><use
             height="100%"
             width="100%"
             y="0"
             x="0"
             style="overflow:visible"
             id="use5183"
             overflow="visible"
             xlink:href="#SVGID_167_" /></clipPath></g><g
         id="g5187"><defs
           id="defs5189"><path
             inkscape:connector-curvature="0"
             d="m 99.829,240.704 0,1.455 1.461,-1.465 c -0.224,-43.271 -0.278,-88.313 -0.186,-132.517 l -1.455,-0.795 -0.007,0.795 c -0.098,44.606 -0.037,89.206 0.187,132.527"
             id="SVGID_169_" /></defs><clipPath
           id="SVGID_170_"><use
             height="100%"
             width="100%"
             y="0"
             x="0"
             style="overflow:visible"
             id="use5193"
             overflow="visible"
             xlink:href="#SVGID_169_" /></clipPath><linearGradient
           gradientTransform="matrix(0,29.1327,-3.1774,0,-432.1442,21947.236)"
           y2="-167.6091"
           x2="-745.04199"
           y1="-167.6091"
           x1="-749.66852"
           gradientUnits="userSpaceOnUse"
           id="SVGID_171_"><stop
             id="stop5196"
             style="stop-color:#E0B27C"
             offset="0" /><stop
             id="stop5198"
             style="stop-color:#C27913"
             offset="1" /></linearGradient></g></g><g
       id="g5374"><g
         id="g5376"><defs
           id="defs5378"><path
             inkscape:connector-curvature="0"
             d="m 71.149,103.166 -1.466,-1.461 -0.007,1.44 c -0.068,15.804 -0.111,31.781 -0.111,47.744 0,9.425 0.018,18.84 0.05,28.214 l 1.455,0.827 c -0.067,-25.571 -0.042,-51.306 0.079,-76.764"
             id="SVGID_202_" /></defs><clipPath
           id="SVGID_203_"><use
             height="100%"
             width="100%"
             y="0"
             x="0"
             style="overflow:visible"
             id="use5382"
             overflow="visible"
             xlink:href="#SVGID_202_" /></clipPath></g><g
         id="g5386"><defs
           id="defs5388"><path
             inkscape:connector-curvature="0"
             d="m 71.149,103.166 -1.466,-1.461 -0.007,1.44 c -0.068,15.804 -0.111,31.781 -0.111,47.744 0,9.425 0.018,18.84 0.05,28.214 l 1.455,0.827 c -0.067,-25.571 -0.042,-51.306 0.079,-76.764"
             id="SVGID_204_" /></defs><clipPath
           id="SVGID_205_"><use
             height="100%"
             width="100%"
             y="0"
             x="0"
             style="overflow:visible"
             id="use5392"
             overflow="visible"
             xlink:href="#SVGID_204_" /></clipPath><linearGradient
           gradientTransform="matrix(0,16.9098,-3.1425,0,-436.3772,12619.898)"
           y2="-161.2527"
           x2="-735.6665"
           y1="-161.2527"
           x1="-740.29303"
           gradientUnits="userSpaceOnUse"
           id="SVGID_206_"><stop
             id="stop5395"
             style="stop-color:#DB9A28"
             offset="0" /><stop
             id="stop5397"
             style="stop-color:#C27913"
             offset="1" /></linearGradient></g></g><g
       id="g5401"><g
         id="g5403"><defs
           id="defs5405"><path
             inkscape:connector-curvature="0"
             d="m 91.351,191.582 1.466,0.776 -0.005,-0.776 C 92.731,161.984 92.72,132.194 92.83,103.027 l 0.007,-1.466 -1.468,1.466 c -0.113,29.371 -0.113,59.129 -0.018,88.555"
             id="SVGID_207_" /></defs><clipPath
           id="SVGID_208_"><use
             height="100%"
             width="100%"
             y="0"
             x="0"
             style="overflow:visible"
             id="use5409"
             overflow="visible"
             xlink:href="#SVGID_207_" /></clipPath></g><g
         id="g5413"><defs
           id="defs5415"><path
             inkscape:connector-curvature="0"
             d="m 91.351,191.582 1.466,0.776 -0.005,-0.776 C 92.731,161.984 92.72,132.194 92.83,103.027 l 0.007,-1.466 -1.468,1.466 c -0.113,29.371 -0.113,59.129 -0.018,88.555"
             id="SVGID_209_" /></defs><clipPath
           id="SVGID_210_"><use
             height="100%"
             width="100%"
             y="0"
             x="0"
             style="overflow:visible"
             id="use5419"
             overflow="visible"
             xlink:href="#SVGID_209_" /></clipPath><linearGradient
           gradientTransform="matrix(0,19.627,-3.1415,0,-431.6058,14693.124)"
           y2="-166.6882"
           x2="-738.81689"
           y1="-166.6882"
           x1="-743.44342"
           gradientUnits="userSpaceOnUse"
           id="SVGID_211_"><stop
             id="stop5422"
             style="stop-color:#C27913"
             offset="0" /><stop
             id="stop5424"
             style="stop-color:#985D03"
             offset="0.8538" /><stop
             id="stop5426"
             style="stop-color:#905800"
             offset="1" /></linearGradient></g></g><g
       id="g5459"><g
         id="g5461"><defs
           id="defs5463"><path
             inkscape:connector-curvature="0"
             d="m 61.545,182.316 c 4.086,0.036 7.344,-0.877 9.526,-2.386 l -1.455,-0.827 c -2.028,1.147 -4.841,1.785 -8.064,1.758 l -0.007,1.455 m 0,0 0.006,-1.455 c -3.503,-0.031 -5.934,-1.419 -7.414,-4.251 -1.098,-2.104 -1.658,-5.002 -1.669,-8.605 l -1.461,0 c 0.011,5.727 1.369,14.248 10.538,14.311 z m -10.439,-78.965 1.473,-1.481 -0.007,1.481 c -0.097,21.554 -0.136,43.311 -0.104,64.653 l -1.461,0 c -0.039,-21.573 0,-43.171 0.099,-64.653 z"
             id="SVGID_217_" /></defs><clipPath
           id="SVGID_218_"><use
             height="100%"
             width="100%"
             y="0"
             x="0"
             style="overflow:visible"
             id="use5467"
             overflow="visible"
             xlink:href="#SVGID_217_" /></clipPath><linearGradient
           gradientTransform="matrix(1,0,0,-1,-56.7402,259.4458)"
           y2="117.3528"
           x2="127.8105"
           y1="117.3528"
           x1="107.7319"
           gradientUnits="userSpaceOnUse"
           id="SVGID_219_"><stop
             id="stop5470"
             style="stop-color:#CE8E3E"
             offset="0" /><stop
             id="stop5472"
             style="stop-color:#FFE7B0"
             offset="1" /></linearGradient></g></g><g
       id="g5540"><g
         id="g5542"><defs
           id="defs5544"><path
             inkscape:connector-curvature="0"
             d="M 49.15,235.292 C 31.93,220.971 22.809,200.144 22.791,175.051 22.784,167.146 22.78,159.113 22.78,150.976 c 0,-17.318 0.016,-35.097 0.047,-53.114 L 21.361,97.22 c -0.043,25.91 -0.068,51.89 -0.039,77.831 0.018,25.301 9.101,46.593 26.897,61.366 15.865,13.396 64.693,34.846 78.058,40.426 l 0,-1.6 c -16.99,-7.12 -62.358,-27.486 -77.127,-39.951"
             id="SVGID_230_" /></defs><clipPath
           id="SVGID_231_"><use
             height="100%"
             width="100%"
             y="0"
             x="0"
             style="overflow:visible"
             id="use5548"
             overflow="visible"
             xlink:href="#SVGID_230_" /></clipPath></g><g
         id="g5552"><defs
           id="defs5554"><path
             inkscape:connector-curvature="0"
             d="M 49.15,235.292 C 31.93,220.971 22.809,200.144 22.791,175.051 22.784,167.146 22.78,159.113 22.78,150.976 c 0,-17.318 0.016,-35.097 0.047,-53.114 L 21.361,97.22 c -0.043,25.91 -0.068,51.89 -0.039,77.831 0.018,25.301 9.101,46.593 26.897,61.366 15.865,13.396 64.693,34.846 78.058,40.426 l 0,-1.6 c -16.99,-7.12 -62.358,-27.486 -77.127,-39.951"
             id="SVGID_232_" /></defs><clipPath
           id="SVGID_233_"><use
             height="100%"
             width="100%"
             y="0"
             x="0"
             style="overflow:visible"
             id="use5558"
             overflow="visible"
             xlink:href="#SVGID_232_" /></clipPath><linearGradient
           gradientTransform="matrix(0,-38.8261,25.494,0,1440.0376,-29868.732)"
           y2="-53.591599"
           x2="-771.79883"
           y1="-53.591599"
           x1="-776.42529"
           gradientUnits="userSpaceOnUse"
           id="SVGID_234_"><stop
             id="stop5561"
             style="stop-color:#C27913"
             offset="0" /><stop
             id="stop5563"
             style="stop-color:#DB9A28"
             offset="0.3" /><stop
             id="stop5565"
             style="stop-color:#C27913"
             offset="1" /></linearGradient></g></g><g
       id="g5569"><g
         id="g5571"><defs
           id="defs5573"><path
             inkscape:connector-curvature="0"
             d="m 203.863,171.455 c -0.137,-6.379 -3.637,-9.826 -12.446,-15.055 -16.59,-9.84 -19.651,-17.991 -19.698,-28.863 -0.1,-16.492 13.815,-26.019 26.928,-26.266 10.969,-0.21 18.302,4.056 21.758,6.807 0.018,5.839 0.031,11.689 0.035,17.535 -4.088,-4.346 -10.729,-8.328 -17.701,-8.452 -5.655,-0.106 -11.564,2.388 -11.745,9.625 -0.163,7.391 5.771,10.341 13.165,14.794 16.599,10.014 19.611,18.858 19.291,30.624 -0.426,12.894 -8.999,27.08 -28.778,27.297 -7.925,0.081 -15.795,-2.367 -22.119,-6.108 0.026,-6.248 0.046,-12.505 0.054,-18.785 5.179,4.653 12.881,8.204 19.273,8.204 7.335,-0.003 12.141,-4.309 11.983,-11.357 m -82.355,-52.703 c 1.653,-0.802 4.486,-1.461 7.242,-1.461 11.877,0 16.811,9.479 16.829,32.434 -0.011,22.381 -5.652,33.17 -17.435,33.17 -2.751,0 -5.165,-0.688 -6.638,-1.238 -0.003,-20.923 -0.001,-41.983 0.002,-62.905 z m 0.04,121.993 c -0.009,-13.979 -0.025,-28.143 -0.027,-42.409 2.028,0.597 5.02,1.139 9.208,1.134 22.644,-0.022 35.694,-20.411 35.694,-50.288 -0.014,-29.795 -13.432,-48.272 -37.823,-48.287 -11.118,0 -20.116,2.472 -27.493,7.283 -0.102,44.203 -0.041,89.246 0.176,132.508 6.75,0.037 13.509,0.054 20.265,0.059 z M 61.545,182.316 c 4.086,0.026 7.346,-0.895 9.528,-2.403 -0.072,-25.563 -0.05,-51.282 0.075,-76.747 6.711,-0.057 13.458,-0.103 20.222,-0.131 -0.099,29.363 -0.106,59.117 -0.018,88.542 -7.762,5.269 -18.146,8.068 -30.43,7.955 C 41.086,199.33 31.355,188.35 31.317,167.01 c 0,-21.145 0.002,-42.319 0.002,-63.419 6.535,-0.093 13.143,-0.165 19.791,-0.239 -0.102,21.469 -0.138,43.086 -0.102,64.648 0.017,5.728 1.372,14.253 10.537,14.316 z"
             id="SVGID_235_" /></defs><clipPath
           id="SVGID_236_"><use
             height="100%"
             width="100%"
             y="0"
             x="0"
             style="overflow:visible"
             id="use5577"
             overflow="visible"
             xlink:href="#SVGID_235_" /></clipPath></g><g
         id="g5581"><defs
           id="defs5583"><path
             inkscape:connector-curvature="0"
             d="m 203.863,171.455 c -0.137,-6.379 -3.637,-9.826 -12.446,-15.055 -16.59,-9.84 -19.651,-17.991 -19.698,-28.863 -0.1,-16.492 13.815,-26.019 26.928,-26.266 10.969,-0.21 18.302,4.056 21.758,6.807 0.018,5.839 0.031,11.689 0.035,17.535 -4.088,-4.346 -10.729,-8.328 -17.701,-8.452 -5.655,-0.106 -11.564,2.388 -11.745,9.625 -0.163,7.391 5.771,10.341 13.165,14.794 16.599,10.014 19.611,18.858 19.291,30.624 -0.426,12.894 -8.999,27.08 -28.778,27.297 -7.925,0.081 -15.795,-2.367 -22.119,-6.108 0.026,-6.248 0.046,-12.505 0.054,-18.785 5.179,4.653 12.881,8.204 19.273,8.204 7.335,-0.003 12.141,-4.309 11.983,-11.357 m -82.355,-52.703 c 1.653,-0.802 4.486,-1.461 7.242,-1.461 11.877,0 16.811,9.479 16.829,32.434 -0.011,22.381 -5.652,33.17 -17.435,33.17 -2.751,0 -5.165,-0.688 -6.638,-1.238 -0.003,-20.923 -0.001,-41.983 0.002,-62.905 z m 0.04,121.993 c -0.009,-13.979 -0.025,-28.143 -0.027,-42.409 2.028,0.597 5.02,1.139 9.208,1.134 22.644,-0.022 35.694,-20.411 35.694,-50.288 -0.014,-29.795 -13.432,-48.272 -37.823,-48.287 -11.118,0 -20.116,2.472 -27.493,7.283 -0.102,44.203 -0.041,89.246 0.176,132.508 6.75,0.037 13.509,0.054 20.265,0.059 z M 61.545,182.316 c 4.086,0.026 7.346,-0.895 9.528,-2.403 -0.072,-25.563 -0.05,-51.282 0.075,-76.747 6.711,-0.057 13.458,-0.103 20.222,-0.131 -0.099,29.363 -0.106,59.117 -0.018,88.542 -7.762,5.269 -18.146,8.068 -30.43,7.955 C 41.086,199.33 31.355,188.35 31.317,167.01 c 0,-21.145 0.002,-42.319 0.002,-63.419 6.535,-0.093 13.143,-0.165 19.791,-0.239 -0.102,21.469 -0.138,43.086 -0.102,64.648 0.017,5.728 1.372,14.253 10.537,14.316 z"
             id="SVGID_237_" /></defs><clipPath
           id="SVGID_238_"><use
             height="100%"
             width="100%"
             y="0"
             x="0"
             style="overflow:visible"
             id="use5587"
             overflow="visible"
             xlink:href="#SVGID_237_" /></clipPath><radialGradient
           fy="134.6106"
           fx="121.9072"
           gradientUnits="userSpaceOnUse"
           gradientTransform="matrix(0.02551336,0.02112707,0.63779278,-0.770208,-23.796924,225.93782)"
           r="132.3331"
           cy="134.6106"
           cx="121.9072"
           id="SVGID_239_"><stop
             id="stop5590"
             style="stop-color:#FFE7B0"
             offset="0" /><stop
             id="stop5592"
             style="stop-color:#FEBF52"
             offset="0.5275" /><stop
             id="stop5594"
             style="stop-color:#F9B94C"
             offset="0.52749997" /><stop
             id="stop5596"
             style="stop-color:#DA9017"
             offset="1" /></radialGradient></g></g><g
       id="g5600" /><path
       style="fill:#aa4400;fill-opacity:1;stroke:#aa4400;stroke-width:1.20848978;stroke-miterlimit:4;stroke-dasharray:none;stroke-opacity:1"
       d="M 105.93769,257.25801 C 90.58963,250.40169 85.010297,247.76699 72.912165,241.66256 46.899012,228.53692 37.427261,221.80096 28.871604,210.34252 21.65573,200.67843 17.49177,190.23679 15.161058,175.96164 14.660567,172.89623 14.575479,167.20408 14.468482,129.63016 L 14.346498,86.793448 18.243939,83.324523 C 27.268474,75.292225 36.821708,68.225671 46.959203,62.083762 53.929017,57.861026 68.123355,50.83076 75.882715,47.758333 113.65191,32.803098 156.87839,27.897783 210.78065,32.450195 l 6.81479,0.575556 0.26157,12.406416 c 0.405,19.209546 0.0917,126.527743 -0.378,129.481043 -1.50174,9.44224 -3.93932,17.73147 -7.18381,24.42922 -3.76137,7.76475 -9.94683,15.90287 -16.38229,21.55395 -6.55486,5.75591 -18.06536,12.67786 -35.90322,21.59074 -12.96425,6.47773 -38.43157,18.17053 -41.45325,19.03241 -0.40268,0.11486 -4.5296,-1.54135 -10.61875,-4.26152 z"
       id="path6609"
       inkscape:connector-curvature="0"
       transform="translate(10.048429,11.735047)" /></g><path
     style="fill:#ffe680;fill-opacity:1;stroke:#ffe680;stroke-width:1.20848978;stroke-miterlimit:4;stroke-dasharray:none;stroke-opacity:1"
     d="M 107.47249,272.24002 C 78.294952,259.71012 53.641992,247.37839 39.886635,238.43273 33.080814,234.00662 27.448018,229.20242 22.717649,223.78932 10.850416,210.2093 4.1922751,194.6807 1.9859894,175.43743 1.5148822,171.32842 1.4450128,161.48438 1.4446437,99.166122 L 1.4442199,27.612752 7.3376061,24.662203 C 30.495298,13.068206 56.596271,6.3514958 90.560728,3.245929 100.46428,2.3403895 132.02037,2.3483766 142.10851,3.2589762 175.14009,6.2405485 201.2256,12.893903 224.14812,24.183945 l 6.90216,3.399526 0,71.268874 c 0,46.088055 -0.12657,72.547605 -0.35824,74.888045 -2.76837,27.96789 -15.54494,49.81247 -37.65259,64.37603 -14.06973,9.26853 -41.09757,22.73959 -70.88895,35.33206 l -5.97895,2.52724 -8.69906,-3.7357 z m 16.04219,-11.67821 c 27.45982,-11.99283 50.62938,-23.70933 63.07423,-31.8957 19.42499,-12.77798 30.62934,-32.14239 32.92158,-56.89819 0.39365,-4.25126 0.51233,-129.69294 0.12901,-136.344972 l -0.22436,-3.893381 -1.6088,-0.205237 C 215.2553,30.998891 204.57145,30.122739 197.3258,29.64478 188.44355,29.058862 160.01595,29.052985 151.89385,29.63538 118.87988,32.002678 91.269515,38.573155 65.747896,50.135648 47.482528,58.41072 29.147557,70.604329 14.806543,84.014019 l -2.204745,2.061565 0.119174,43.370376 c 0.10477,38.12811 0.188321,43.7928 0.691236,46.86515 2.323531,14.19464 6.200427,24.07426 13.543775,34.51404 2.7852,3.95962 10.682033,12.00652 14.611963,14.88963 11.232486,8.24049 35.768448,20.94836 66.816084,34.60595 3.94035,1.73333 7.44017,3.15898 7.77739,3.16813 0.33722,0.009 3.64619,-1.30803 7.35326,-2.92706 z"
     id="path6611"
     inkscape:connector-curvature="0"
     transform="translate(9,12.434)" /><path
     style="fill:none;fill-rule:evenodd;stroke:#000000;stroke-width:1px;stroke-linecap:butt;stroke-linejoin:miter;stroke-opacity:1"
     d="m 197.36783,68.000764 0,144.683276 -95.75656,0 0,13.62958 -34.947647,-22.01702 35.297127,-19.22121 0,16.4254 84.22384,0 0,-133.15055 z"
     id="path6613"
     inkscape:connector-curvature="0" /><path
     style="fill:#ffe680;fill-opacity:1;stroke:#ffe680;stroke-width:1.20848978;stroke-miterlimit:4;stroke-dasharray:none;stroke-opacity:1"
     d="m 75.284226,202.24804 c -9.0851,-5.73886 -16.017965,-10.33395 -15.84793,-10.50398 0.166246,-0.16625 7.591098,-4.26648 16.499671,-9.11162 l 16.197405,-8.80934 0.09381,7.97282 0.09381,7.97281 42.717058,-0.0888 42.71706,-0.0888 0.0883,-66.43821 0.0883,-66.438213 2.14723,-0.224429 c 1.18097,-0.123436 3.38227,-0.22443 4.89177,-0.22443 l 2.74455,0 0,71.642682 0,71.64268 -47.87829,0 -47.878273,0 0,6.46532 c 0,3.55592 -0.117948,6.45807 -0.262107,6.44923 -0.144159,-0.009 -7.529695,-4.60687 -16.412301,-10.21781 z"
     id="path6615"
     inkscape:connector-curvature="0"
     transform="translate(9,12.434)" /></svg>